# xmcd
#
# Track frame offsets: 
#        150
#        14297
#        30587
#        47801
#        66241
#        89134
#        107367
#        132118
#        146853
#        164157
#        188438
#
# Disc length: 3083 seconds
#
# Revision: 1
# Processed by: cddbd v1.5.2PL0 Copyright (c) Steve Scherf et al.
# Submitted via: ExactAudioCopy v1.0b3
#
DISCID=980c090b
DTITLE=Rick Derringer - The Three Kings Of The Blues
DYEAR=2010
DGENRE=Blues
TTITLE0=Just A Little Bit
TTITLE1=Key To The Highway
TTITLE2=Killing Floor
TTITLE3=Let The Good Times Roll
TTITLE4=Crying Won't Help You
TTITLE5=Hideaway 1962
TTITLE6=You've Got To Love Her With A Feeling
TTITLE7=Blues Power
TTITLE8=Born Under A Bad Sign
TTITLE9=Wrapped Up In Love Again
TTITLE10=Something Inside Of Me
EXTD=
EXTT0=
EXTT1=
EXTT2=
EXTT3=
EXTT4=
EXTT5=
EXTT6=
EXTT7=
EXTT8=
EXTT9=
EXTT10=
PLAYORDER=
